<svg width="150" height="150" viewBox="0 0 150 150" fill="none" xmlns="http://www.w3.org/2000/svg">
<circle cx="75" cy="75" r="75" fill="#F08519"/>
<path d="M43.6777 56.4863C43.6777 55.6888 43.5312 54.9971 43.2383 54.4111C42.9453 53.8089 42.5465 53.3125 42.042 52.9219C41.5374 52.515 40.9515 52.2139 40.2842 52.0186C39.6331 51.807 38.9414 51.7012 38.209 51.7012C37.4277 51.7012 36.6465 51.8314 35.8652 52.0918C35.084 52.3522 34.3597 52.7428 33.6924 53.2637C33.0413 53.7682 32.4717 54.403 31.9834 55.168C31.4951 55.9329 31.1452 56.8118 30.9336 57.8047L26.2705 54.46C26.6611 53.3695 27.2227 52.4173 27.9551 51.6035C28.7038 50.7897 29.5827 50.1143 30.5918 49.5771C31.6009 49.04 32.7321 48.6413 33.9854 48.3809C35.2386 48.1042 36.5814 47.9658 38.0137 47.9658C39.5924 47.9658 41.1061 48.1449 42.5547 48.5029C44.0033 48.8447 45.2809 49.3818 46.3877 50.1143C47.4945 50.8304 48.3734 51.7337 49.0244 52.8242C49.6917 53.9147 50.0254 55.1924 50.0254 56.6572C50.0254 57.6338 49.8301 58.5452 49.4395 59.3916C49.0651 60.238 48.5199 61.0029 47.8037 61.6865C47.1038 62.3538 46.2493 62.9398 45.2402 63.4443C44.2311 63.9326 43.0918 64.3151 41.8223 64.5918C43.3034 64.7871 44.6299 65.1289 45.8018 65.6172C46.9736 66.1055 47.9583 66.7402 48.7559 67.5215C49.5697 68.2865 50.1882 69.1979 50.6113 70.2559C51.0345 71.3138 51.2461 72.5101 51.2461 73.8447C51.2461 75.391 50.9368 76.7826 50.3184 78.0195C49.6999 79.2565 48.8291 80.3063 47.7061 81.1689C46.583 82.0316 45.224 82.6908 43.6289 83.1465C42.0501 83.6185 40.2923 83.8545 38.3555 83.8545C37.1348 83.8545 35.9466 83.7568 34.791 83.5615C33.6517 83.3662 32.5693 83.0977 31.5439 82.7559C30.5348 82.3978 29.6152 81.9827 28.7852 81.5107C27.9551 81.0387 27.2471 80.5179 26.6611 79.9482C26.6774 79.5088 26.6937 79.0531 26.71 78.5811C26.7262 78.109 26.7507 77.6045 26.7832 77.0674C26.8158 76.514 26.8564 75.9036 26.9053 75.2363C26.9704 74.569 27.0518 73.8203 27.1494 72.9902L30.9336 73.4541C31.0475 74.7074 31.3161 75.7653 31.7393 76.6279C32.1624 77.4743 32.6751 78.1579 33.2773 78.6787C33.8958 79.1995 34.5794 79.582 35.3281 79.8262C36.0931 80.054 36.8743 80.168 37.6719 80.168C38.6647 80.168 39.5436 80.0052 40.3086 79.6797C41.0898 79.3542 41.7409 78.9066 42.2617 78.3369C42.7988 77.751 43.2057 77.0592 43.4824 76.2617C43.7591 75.4479 43.8975 74.5609 43.8975 73.6006C43.8975 71.3219 43.1406 69.6536 41.627 68.5957C40.1133 67.5215 37.973 66.9844 35.2061 66.9844H32.9111C32.9274 66.4147 32.9437 65.8288 32.96 65.2266C32.9925 64.6243 33.0576 64.0872 33.1553 63.6152L35.2061 63.4932C36.1012 63.4443 37.0452 63.2572 38.0381 62.9316C39.0309 62.5898 39.9424 62.126 40.7725 61.54C41.6188 60.9378 42.3105 60.2135 42.8477 59.3672C43.401 58.5208 43.6777 57.5605 43.6777 56.4863ZM69.9229 83.7324C67.6279 83.7324 65.6016 83.3174 63.8438 82.4873C62.1022 81.641 60.6374 80.4447 59.4492 78.8984C58.2773 77.3359 57.3822 75.4479 56.7637 73.2344C56.1615 71.0046 55.8604 68.5062 55.8604 65.7393C55.8604 62.9398 56.1615 60.4414 56.7637 58.2441C57.3822 56.0306 58.2855 54.1589 59.4736 52.6289C60.6618 51.099 62.1266 49.9352 63.8682 49.1377C65.626 48.3402 67.6442 47.9414 69.9229 47.9414C72.2178 47.9414 74.2441 48.3483 76.002 49.1621C77.7598 49.9596 79.2327 51.1234 80.4209 52.6533C81.609 54.1833 82.5042 56.055 83.1064 58.2686C83.7087 60.4658 84.0098 62.9561 84.0098 65.7393C84.0098 68.5387 83.6924 71.0534 83.0576 73.2832C82.4391 75.4967 81.5277 77.3848 80.3232 78.9473C79.1351 80.4935 77.6621 81.6816 75.9043 82.5117C74.1628 83.3255 72.1689 83.7324 69.9229 83.7324ZM76.1973 65.7393C76.1973 61.1169 75.709 57.6257 74.7324 55.2656C73.7559 52.8893 72.1527 51.7012 69.9229 51.7012C68.8649 51.7012 67.9453 51.9779 67.1641 52.5312C66.3828 53.0684 65.7318 53.9147 65.2109 55.0703C64.6901 56.2096 64.2995 57.6663 64.0391 59.4404C63.7949 61.1982 63.6729 63.2979 63.6729 65.7393C63.6729 70.557 64.1774 74.1296 65.1865 76.457C66.2119 78.7845 67.7907 79.9482 69.9229 79.9482C72.1201 79.9482 73.7152 78.7438 74.708 76.335C75.7008 73.9098 76.1973 70.3779 76.1973 65.7393Z" fill="white"/>
<path d="M88.2188 50.2354C88.2188 48.0088 88.2139 45.7969 88.2041 43.5996C88.2041 41.4023 88.2041 39.1953 88.2041 36.9785C88.2041 36.3047 88.1553 35.8213 88.0576 35.5283C87.8623 35.4893 87.6572 35.4697 87.4424 35.4697C87.2275 35.4697 87.0127 35.4697 86.7979 35.4697H84.9961V33.4482C85.6406 33.3896 86.3486 33.3408 87.1201 33.3018C87.9014 33.2627 88.6924 33.2334 89.4932 33.2139C90.3037 33.1846 91.1094 33.165 91.9102 33.1553C92.7207 33.1455 93.4775 33.1406 94.1807 33.1406C95.5381 33.1406 96.793 33.2285 97.9453 33.4043C99.0977 33.5703 100.089 33.8828 100.919 34.3418C101.759 34.791 102.413 35.4062 102.882 36.1875C103.351 36.9688 103.585 37.9648 103.585 39.1758C103.585 39.8203 103.478 40.416 103.263 40.9629C103.048 41.5 102.74 41.9883 102.34 42.4277C101.949 42.8672 101.471 43.2529 100.904 43.585C100.348 43.917 99.7227 44.2002 99.0293 44.4346C99.7324 44.6982 100.333 45.0498 100.831 45.4893C101.329 45.9189 101.759 46.4365 102.12 47.042C102.491 47.6475 102.809 48.3408 103.072 49.1221C103.336 49.8936 103.585 50.7578 103.819 51.7148C103.917 51.7148 104.054 51.7148 104.229 51.7148C104.405 51.7051 104.601 51.7002 104.815 51.7002C105.04 51.7002 105.27 51.7002 105.504 51.7002C105.748 51.6904 105.978 51.6855 106.192 51.6855L106.075 54.2197C105.665 54.2588 105.206 54.2979 104.698 54.3369C104.19 54.3857 103.692 54.4102 103.204 54.4102C102.257 54.4102 101.476 54.2393 100.86 53.8975C100.245 53.5459 99.7764 52.9844 99.4541 52.2129C99.1025 51.3828 98.8047 50.6113 98.5605 49.8984C98.3262 49.1855 98.0967 48.541 97.8721 47.9648C97.6475 47.3887 97.4082 46.8906 97.1543 46.4707C96.9102 46.0508 96.6074 45.7139 96.2461 45.46C95.7285 45.3721 95.1816 45.333 94.6055 45.3428C94.0293 45.3428 93.4629 45.333 92.9062 45.3135V50.2061C92.9062 50.5479 92.916 50.8506 92.9355 51.1143C92.9648 51.3682 93.0039 51.5977 93.0527 51.8027C93.248 51.832 93.4531 51.8516 93.668 51.8613C93.8828 51.8613 94.1025 51.8613 94.3271 51.8613H95.499V54.1904C94.6396 54.1123 93.834 54.0586 93.082 54.0293C92.3398 54.0098 91.6172 54 90.9141 54C90.0449 54 89.1611 54.0098 88.2627 54.0293C87.374 54.0586 86.4268 54.1123 85.4209 54.1904V51.8613H86.6807C86.9346 51.8613 87.1738 51.8613 87.3984 51.8613C87.623 51.8516 87.8428 51.832 88.0576 51.8027C88.1064 51.627 88.1455 51.4121 88.1748 51.1582C88.2041 50.8945 88.2188 50.5869 88.2188 50.2354ZM94.2979 35.4697H92.9062V43.248C93.0527 43.2578 93.1992 43.2627 93.3457 43.2627C93.502 43.2627 93.6631 43.2627 93.8291 43.2627C94.6885 43.2627 95.4307 43.1943 96.0557 43.0576C96.6807 42.9111 97.1934 42.6816 97.5938 42.3691C98.0039 42.0566 98.3066 41.6465 98.502 41.1387C98.6973 40.6309 98.7949 40.0156 98.7949 39.293C98.7949 38.5801 98.7119 37.9844 98.5459 37.5059C98.3799 37.0176 98.1162 36.6221 97.7549 36.3193C97.3936 36.0166 96.9248 35.8018 96.3486 35.6748C95.7822 35.5381 95.0986 35.4697 94.2979 35.4697ZM108.741 53.8828L108.829 52.6377C109.063 52.4912 109.244 52.3252 109.371 52.1396C109.498 51.9443 109.596 51.71 109.664 51.4365C109.732 51.1533 109.771 50.8262 109.781 50.4551C109.801 50.0742 109.811 49.6299 109.811 49.1221V35.7773C109.811 35.2402 109.796 34.7227 109.767 34.2246C109.571 34.1953 109.366 34.1709 109.151 34.1514C108.946 34.1318 108.727 34.1221 108.492 34.1221H107.145V32.6572C107.857 32.4814 108.683 32.3496 109.62 32.2617C110.558 32.1738 111.598 32.1299 112.74 32.1299C113.121 32.1299 113.419 32.1689 113.634 32.2471C113.858 32.3252 114.024 32.4326 114.132 32.5693C114.249 32.7061 114.322 32.8721 114.352 33.0674C114.381 33.2627 114.396 33.4824 114.396 33.7266V40.4502C115.099 39.8936 115.831 39.4883 116.593 39.2344C117.354 38.9707 118.146 38.8389 118.966 38.8389C119.991 38.8389 120.899 39.0244 121.69 39.3955C122.491 39.7666 123.16 40.2842 123.697 40.9482C124.244 41.6025 124.654 42.3789 124.928 43.2773C125.211 44.1758 125.353 45.1572 125.353 46.2217C125.353 47.4717 125.167 48.5752 124.796 49.5322C124.425 50.4893 123.927 51.2998 123.302 51.9639C122.687 52.6182 121.964 53.1309 121.134 53.502C120.313 53.8633 119.449 54.0732 118.541 54.1318C118.043 54.1611 117.56 54.1758 117.091 54.1758C116.485 54.166 115.875 54.1514 115.26 54.1318C114.654 54.1123 114.015 54.0879 113.341 54.0586C112.667 54.0293 111.954 54 111.202 53.9707C110.45 53.9316 109.63 53.9023 108.741 53.8828ZM120.592 46.3096C120.592 42.7061 119.693 40.9043 117.896 40.9043C116.822 40.9043 115.704 41.3242 114.542 42.1641C114.483 42.9258 114.444 43.7021 114.425 44.4932C114.405 45.2842 114.396 46.0996 114.396 46.9395C114.396 47.7988 114.4 48.6777 114.41 49.5762C114.43 50.4746 114.459 51.3633 114.498 52.2422C114.957 52.291 115.426 52.3252 115.904 52.3447C116.393 52.3643 116.847 52.374 117.267 52.374C118.292 52.374 119.103 51.8662 119.698 50.8506C120.294 49.8252 120.592 48.3115 120.592 46.3096Z" fill="white"/>
<path d="M57.7266 90.1113C57.9609 89.8965 58.2295 89.75 58.5322 89.6719C58.835 89.584 59.1475 89.54 59.4697 89.54C59.6943 89.54 59.9238 89.5596 60.1582 89.5986C60.4023 89.6279 60.6367 89.667 60.8613 89.7158C60.7539 89.9697 60.6465 90.2236 60.5391 90.4775C60.4414 90.7217 60.3389 90.9707 60.2314 91.2246L51.6768 110.546C51.4131 111.151 51.125 111.713 50.8125 112.23C50.627 112.309 50.3877 112.348 50.0947 112.348H49.2158C48.6787 112.348 48.2734 112.274 48 112.128L48.6299 110.648C50.1533 107.211 51.667 103.788 53.1709 100.38C54.6748 96.9717 56.1934 93.5488 57.7266 90.1113ZM62.9854 110.883L63.0732 109.638C63.3076 109.491 63.4883 109.325 63.6152 109.14C63.7422 108.944 63.8398 108.71 63.9082 108.437C63.9766 108.153 64.0156 107.826 64.0254 107.455C64.0449 107.074 64.0547 106.63 64.0547 106.122V92.7773C64.0547 92.2402 64.04 91.7227 64.0107 91.2246C63.8154 91.1953 63.6104 91.1709 63.3955 91.1514C63.1904 91.1318 62.9707 91.1221 62.7363 91.1221H61.3887V89.6572C62.1016 89.4814 62.9268 89.3496 63.8643 89.2617C64.8018 89.1738 65.8418 89.1299 66.9844 89.1299C67.3652 89.1299 67.6631 89.1689 67.8779 89.2471C68.1025 89.3252 68.2686 89.4326 68.376 89.5693C68.4932 89.7061 68.5664 89.8721 68.5957 90.0674C68.625 90.2627 68.6396 90.4824 68.6396 90.7266V97.4502C69.3428 96.8936 70.0752 96.4883 70.8369 96.2344C71.5986 95.9707 72.3896 95.8389 73.21 95.8389C74.2354 95.8389 75.1436 96.0244 75.9346 96.3955C76.7354 96.7666 77.4043 97.2842 77.9414 97.9482C78.4883 98.6025 78.8984 99.3789 79.1719 100.277C79.4551 101.176 79.5967 102.157 79.5967 103.222C79.5967 104.472 79.4111 105.575 79.04 106.532C78.6689 107.489 78.1709 108.3 77.5459 108.964C76.9307 109.618 76.208 110.131 75.3779 110.502C74.5576 110.863 73.6934 111.073 72.7852 111.132C72.2871 111.161 71.8037 111.176 71.335 111.176C70.7295 111.166 70.1191 111.151 69.5039 111.132C68.8984 111.112 68.2588 111.088 67.585 111.059C66.9111 111.029 66.1982 111 65.4463 110.971C64.6943 110.932 63.874 110.902 62.9854 110.883ZM74.8359 103.31C74.8359 99.7061 73.9375 97.9043 72.1406 97.9043C71.0664 97.9043 69.9482 98.3242 68.7861 99.1641C68.7275 99.9258 68.6885 100.702 68.6689 101.493C68.6494 102.284 68.6396 103.1 68.6396 103.939C68.6396 104.799 68.6445 105.678 68.6543 106.576C68.6738 107.475 68.7031 108.363 68.7422 109.242C69.2012 109.291 69.6699 109.325 70.1484 109.345C70.6367 109.364 71.0908 109.374 71.5107 109.374C72.5361 109.374 73.3467 108.866 73.9424 107.851C74.5381 106.825 74.8359 105.312 74.8359 103.31ZM87.4629 103.603C87.4629 105.546 87.7363 106.981 88.2832 107.909C88.8398 108.837 89.7041 109.301 90.876 109.301C92.1064 109.301 92.9805 108.822 93.498 107.865C94.0156 106.908 94.2744 105.487 94.2744 103.603C94.2744 101.688 94.001 100.263 93.4541 99.3252C92.9072 98.3877 92.0479 97.9189 90.876 97.9189C89.665 97.9189 88.791 98.3975 88.2539 99.3545C87.7266 100.302 87.4629 101.718 87.4629 103.603ZM99.0791 103.617C99.0791 104.926 98.8545 106.063 98.4053 107.03C97.9561 107.997 97.3506 108.803 96.5889 109.447C95.8369 110.082 94.9678 110.556 93.9814 110.868C92.9951 111.181 91.9648 111.337 90.8906 111.337C89.709 111.337 88.6152 111.166 87.6094 110.824C86.6035 110.473 85.7344 109.965 85.002 109.301C84.2695 108.637 83.6982 107.831 83.2881 106.884C82.8779 105.927 82.6729 104.838 82.6729 103.617C82.6729 102.328 82.8926 101.2 83.332 100.233C83.7812 99.2666 84.3818 98.4561 85.1338 97.8018C85.8955 97.1475 86.7695 96.6592 87.7559 96.3369C88.752 96.0049 89.7969 95.8389 90.8906 95.8389C92.0723 95.8389 93.1611 96.0195 94.1572 96.3809C95.1631 96.7324 96.0273 97.2451 96.75 97.9189C97.4824 98.583 98.0537 99.3984 98.4639 100.365C98.874 101.322 99.0791 102.406 99.0791 103.617ZM113.142 103.104L116.394 107.543C116.677 107.924 116.916 108.227 117.111 108.451C117.307 108.676 117.502 108.852 117.697 108.979C117.902 109.096 118.127 109.179 118.371 109.228C118.615 109.276 118.928 109.315 119.309 109.345L119.602 111.176C119.074 111.127 118.425 111.083 117.653 111.044C116.892 111.015 116.076 111 115.207 111C114.504 111 113.811 111.015 113.127 111.044C112.443 111.073 111.818 111.117 111.252 111.176L111.018 109.433C111.34 109.394 111.599 109.354 111.794 109.315C111.989 109.267 112.131 109.198 112.219 109.11C112.18 108.993 112.102 108.842 111.984 108.656C111.867 108.461 111.716 108.236 111.53 107.982L109.523 105.141L107.795 107.514C107.541 107.865 107.331 108.168 107.165 108.422C106.999 108.676 106.877 108.9 106.799 109.096C106.926 109.184 107.092 109.252 107.297 109.301C107.512 109.35 107.78 109.394 108.103 109.433C108.073 109.53 108.039 109.657 108 109.813C107.971 109.97 107.937 110.136 107.897 110.312C107.858 110.478 107.824 110.639 107.795 110.795C107.766 110.951 107.736 111.078 107.707 111.176C107.209 111.117 106.662 111.073 106.066 111.044C105.48 111.015 104.865 111 104.221 111C103.723 111 103.176 111.015 102.58 111.044C101.994 111.083 101.418 111.127 100.852 111.176L101.13 109.433C101.491 109.403 101.789 109.364 102.023 109.315C102.258 109.257 102.468 109.184 102.653 109.096C102.849 109.008 103.034 108.9 103.21 108.773C103.396 108.646 103.61 108.485 103.854 108.29L107.561 103.764L104.499 99.4717C104.333 99.2471 104.162 99.0322 103.986 98.8271C103.82 98.6123 103.645 98.4023 103.459 98.1973C103.293 98.1484 103.122 98.1191 102.946 98.1094C102.771 98.0898 102.59 98.0801 102.404 98.0801H101.511L101.306 96.3076C101.794 96.2002 102.375 96.1221 103.049 96.0732C103.723 96.0244 104.484 96 105.334 96C105.998 96 106.696 96.0195 107.429 96.0586C108.161 96.0879 108.957 96.1709 109.816 96.3076C109.875 96.5518 109.924 96.8252 109.963 97.1279C110.012 97.4209 110.061 97.7383 110.109 98.0801H109.45C109.089 98.0801 108.825 98.1191 108.659 98.1973C108.747 98.3535 108.85 98.5049 108.967 98.6514C109.094 98.7979 109.216 98.9541 109.333 99.1201L111.149 101.684C111.55 101.156 111.96 100.595 112.38 99.999C112.81 99.3936 113.239 98.793 113.669 98.1973C113.474 98.1191 113.195 98.0801 112.834 98.0801H112.102L112.424 96.3076C113.039 96.2002 113.664 96.1221 114.299 96.0732C114.943 96.0244 115.598 96 116.262 96C116.877 96 117.438 96.0244 117.946 96.0732C118.454 96.1221 118.962 96.2002 119.47 96.3076L119.206 98.0801H118.562C118.317 98.0801 118.078 98.0898 117.844 98.1094C117.609 98.1191 117.38 98.1484 117.155 98.1973L115.485 100.263C115.075 100.78 114.66 101.293 114.24 101.801C113.82 102.309 113.454 102.743 113.142 103.104Z" fill="white"/>
</svg>
